<svg version="1.0" xmlns="http://www.w3.org/2000/svg" viewBox="0 0 208.000000 281.000000">

<g transform="translate(0.000000,281.000000) scale(0.100000,-0.100000)"
fill="#bbb" align='middle'>
<path d="M575 2757 c-62 -21 -86 -36 -138 -85 -81 -79 -110 -211 -71 -326 22
-64 100 -147 166 -177 47 -21 70 -24 218 -27 158 -3 166 -3 193 19 l29 22 -4
181 c-3 174 -4 183 -30 231 -54 102 -149 164 -262 171 -34 2 -79 -2 -101 -9z
m164 -158 c20 -11 47 -36 61 -56 22 -32 25 -49 29 -145 l3 -108 -107 0 c-127
0 -164 13 -203 73 -95 144 67 320 217 236z"/>
<path d="M1335 2757 c-68 -23 -101 -44 -148 -97 -67 -75 -77 -113 -77 -311 l0
-168 27 -21 c26 -20 36 -21 193 -18 157 3 168 4 222 31 72 35 141 111 164 179
37 111 2 248 -83 330 -74 72 -207 105 -298 75z m164 -158 c115 -64 115 -224 0
-288 -31 -18 -54 -21 -144 -21 l-107 0 4 108 c3 98 6 113 29 149 48 71 143 94
218 52z"/>
<path d="M190 2033 c-47 -18 -100 -67 -124 -115 l-26 -52 0 -373 0 -373 465 0
465 0 0 460 0 460 -382 -1 c-211 0 -390 -3 -398 -6z"/>
<path d="M1110 1580 l0 -460 465 0 465 0 0 363 c0 417 -2 428 -76 497 -24 22
-56 45 -70 50 -15 6 -183 10 -405 10 l-379 0 0 -460z"/>
<path d="M42 588 l3 -383 27 -46 c15 -25 46 -59 69 -75 l42 -29 394 -3 393 -3
0 461 0 460 -465 0 -466 0 3 -382z"/>
<path d="M1110 510 l0 -460 381 0 381 0 49 26 c52 29 93 80 109 135 6 19 10
190 10 396 l0 363 -465 0 -465 0 0 -460z"/>
</g>
</svg>
