<?xml version="1.0" encoding="utf-8"?>
<!-- Generator: Adobe Illustrator 22.1.0, SVG Export Plug-In . SVG Version: 6.00 Build 0)  -->
<svg version="1.1" id="Layer_1" xmlns="http://www.w3.org/2000/svg" xmlns:xlink="http://www.w3.org/1999/xlink" x="0px" y="0px"
	 width="229px" height="150px" viewBox="0 0 229 150" enable-background="new 0 0 229 150" xml:space="preserve">
<rect fill="#EBE7DE" width="229" height="150"/>
<rect y="91.213" fill="#D1C9BF" width="229" height="58.787"/>
<rect x="20.818" y="71.285" fill="#849781" width="187.183" height="52.579"/>
<rect x="20.818" y="71.285" fill="#586D44" width="187.183" height="1.8"/>
<rect x="20.818" y="77.074" fill="#586D44" width="187.183" height="1.798"/>
<rect x="20.818" y="82.864" fill="#586D44" width="187.183" height="1.797"/>
<rect x="20.818" y="88.651" fill="#586D44" width="187.183" height="1.797"/>
<rect x="20.818" y="94.439" fill="#586D44" width="187.183" height="1.798"/>
<rect x="20.818" y="100.228" fill="#586D44" width="187.183" height="1.798"/>
<rect x="20.818" y="106.016" fill="#586D44" width="187.183" height="1.798"/>
<rect x="20.818" y="111.804" fill="#586D44" width="187.183" height="1.795"/>
<rect x="20.818" y="111.804" fill="#586D44" width="187.183" height="1.795"/>
<rect x="20.818" y="117.591" fill="#586D44" width="187.183" height="1.797"/>
<rect x="20.818" y="117.591" fill="#586D44" width="187.183" height="1.797"/>
<rect x="20.818" y="123.379" fill="#586D44" width="187.183" height="1.801"/>
<polygon fill="#849781" points="194.299,47.295 37.697,47.295 20.818,71.285 207.682,71.285 "/>
<polygon fill="none" stroke="#CCCDC0" stroke-width="1.153" stroke-miterlimit="10" points="189.48,50.653 44.236,50.653 
	32.879,67.776 197.742,67.776 "/>
<ellipse fill="none" stroke="#CCCDC0" stroke-width="0.768" stroke-miterlimit="10" cx="114.106" cy="59.44" rx="25.642" ry="5.876"/>
<rect x="96.72" y="71.354" fill="#BD3A47" width="35.378" height="53.826"/>
<polygon fill="#B53145" points="132.191,71.516 96.714,71.606 98.962,47.295 129.595,47.295 "/>
<polygon fill="#BD3A47" points="82.879,53.48 67.257,72.718 65.63,90.07 63.42,113.603 77.25,108.142 88.794,115.552 92.552,72.663 
	105.876,61.279 "/>
<path fill="#A12835" d="M74.033,64.487l-6.144,7.655c1.563,0.783,1.94,0.918,3.765,0.838c0,0,22.364-4.378,30.958-9.005l2.299-4.133
	L74.033,64.487z"/>
<path fill="#BD3845" d="M101.684,36.928c0,0-19.081-13.299-22.552-14.461c-3.465-1.151-15.032-6.356-16.765,6.363l-0.579,32.958
	c0,0,0.579,7.52,13.879,6.939c0,0,19.655-2.888,27.175-6.939l4.043-1.153l-0.575-22.548L101.684,36.928z"/>
<polygon fill="#BD3A47" points="148.257,54.144 163.878,73.381 165.506,90.734 167.715,114.266 153.885,108.808 142.34,116.217 
	138.582,73.329 125.259,61.943 "/>
<path fill="#A12835" d="M157.104,65.151l6.143,7.653c-1.562,0.784-1.94,0.92-3.764,0.84c0,0-25.63-5.915-34.223-10.542l0.965-2.596
	L157.104,65.151z"/>
<path fill="#BD3845" d="M126.546,36.928c0,0,19.081-13.299,22.552-14.461c3.47-1.151,15.033-6.356,16.765,6.363l0.58,32.958
	c0,0-0.58,7.52-13.875,6.939c0,0-19.662-2.888-27.18-6.939l-4.046-1.153l0.581-22.548L126.546,36.928z"/>
<path fill="#A12835" d="M108.454,34.146c0,0-6.84,0-6.84,6.382V61.57c0,0,0,6.388,6.84,6.388h10.617c0,0,6.838,0,6.838-6.388V40.528
	c0,0,0-6.382-6.838-6.382H108.454z"/>
<path fill="#BD3845" d="M109.022,33.451c0,0-6.187,0-6.187,5.729v20.431c0,0,0,5.72,6.187,5.72h9.605c0,0,6.187,0,6.187-5.72V39.18
	c0,0,0-5.729-6.187-5.729H109.022z"/>
</svg>
